<svg xmlns="http://www.w3.org/2000/svg" width="640" height="500" viewBox="0 0 640 500">
<rect width="100%" height="100%" fill="white"/>
<text x="320.0" y="35" text-anchor="middle" font-size="28" font-family="Arial">Adults, Disjunctive</text>
<line x1="80" y1="70" x2="80" y2="430" stroke="black" stroke-width="2"/>
<line x1="80" y1="430" x2="580" y2="430" stroke="black" stroke-width="2"/>
<line x1="74" y1="430.0" x2="80" y2="430.0" stroke="black"/>
<text x="68" y="434.0" text-anchor="end" font-size="18" font-family="Arial">0</text>
<line x1="74" y1="340.0" x2="80" y2="340.0" stroke="black"/>
<text x="68" y="344.0" text-anchor="end" font-size="18" font-family="Arial">0.25</text>
<line x1="74" y1="250.0" x2="80" y2="250.0" stroke="black"/>
<text x="68" y="254.0" text-anchor="end" font-size="18" font-family="Arial">0.5</text>
<line x1="74" y1="160.0" x2="80" y2="160.0" stroke="black"/>
<text x="68" y="164.0" text-anchor="end" font-size="18" font-family="Arial">0.75</text>
<line x1="74" y1="70.0" x2="80" y2="70.0" stroke="black"/>
<text x="68" y="74.0" text-anchor="end" font-size="18" font-family="Arial">1</text>
<text x="24" y="250.0" transform="rotate(-90 24 250.0)" text-anchor="middle" font-size="20" font-family="Arial">Proportion Nexiom</text>
<rect x="170" y="310.0" width="110" height="120.0" fill="#4C78A8"/>
<line x1="225.0" y1="286.0" x2="225.0" y2="334.0" stroke="black" stroke-width="1.5"/>
<line x1="216.0" y1="286.0" x2="234.0" y2="286.0" stroke="black" stroke-width="1.5"/>
<line x1="216.0" y1="334.0" x2="234.0" y2="334.0" stroke="black" stroke-width="1.5"/>
<text x="225.0" y="274.0" text-anchor="middle" font-size="16" font-family="Arial">0.333 (17/51)</text>
<text x="225.0" y="454" text-anchor="middle" font-size="16" font-family="Arial">Object 4</text>
<rect x="300" y="317.1" width="110" height="112.9" fill="#F58518"/>
<line x1="355.0" y1="293.4" x2="355.0" y2="340.7" stroke="black" stroke-width="1.5"/>
<line x1="346.0" y1="293.4" x2="364.0" y2="293.4" stroke="black" stroke-width="1.5"/>
<line x1="346.0" y1="340.7" x2="364.0" y2="340.7" stroke="black" stroke-width="1.5"/>
<text x="355.0" y="281.4" text-anchor="middle" font-size="16" font-family="Arial">0.314 (16/51)</text>
<text x="355.0" y="454" text-anchor="middle" font-size="16" font-family="Arial">Object 5</text>
<rect x="430" y="225.3" width="110" height="204.7" fill="#54A24B"/>
<line x1="485.0" y1="200.1" x2="485.0" y2="250.5" stroke="black" stroke-width="1.5"/>
<line x1="476.0" y1="200.1" x2="494.0" y2="200.1" stroke="black" stroke-width="1.5"/>
<line x1="476.0" y1="250.5" x2="494.0" y2="250.5" stroke="black" stroke-width="1.5"/>
<text x="485.0" y="188.1" text-anchor="middle" font-size="16" font-family="Arial">0.569 (29/51)</text>
<text x="485.0" y="454" text-anchor="middle" font-size="16" font-family="Arial">Object 6</text>
</svg>